<?xml version="1.0" encoding="utf-8"?>
<!-- Generator: Adobe Illustrator 26.0.0, SVG Export Plug-In . SVG Version: 6.00 Build 0)  -->
<svg version="1.1" id="Calque_1" xmlns="http://www.w3.org/2000/svg" xmlns:xlink="http://www.w3.org/1999/xlink" x="0px" y="0px"
	 viewBox="0 0 367 263.33" style="enable-background:new 0 0 367 263.33;" xml:space="preserve">
<style type="text/css">
	.st0{fill:#009FE3;}
	.st1{fill:#0080C9;}
	.st2{fill:#65B32E;}
	.st3{fill:#006633;}
	.st4{font-family:'Verdana';}
	.st5{font-size:64.4283px;}
	.st6{letter-spacing:-2.35;}
	.st7{font-size:84.772px;}
	.st8{letter-spacing:-3.76;}
	.st9{fill:#936037;}
</style>
<path class="st0" d="M-207.13,52.83"/>
<path class="st1" d="M299.74,254.03c0,0-30.61-67.04-137.44-81.43c0,0-64.89-8.57-117.54,15l0.31,12.55c0,0,69.79-30.61,135.6-16.53
	C246.48,197.71,279.54,229.24,299.74,254.03z"/>
<path class="st2" d="M166.22,66.44c0,0-7.78-8.46-18.42-2.73c0,0-8.46,3.68-3.14,14.19l0.27,9.41c0,0-17.6-11.32-34.38-3.14
	c-16.78,8.18-17.6,12.69-17.6,12.69s-2.73,3.55,6.68,4.77v9.14c0,0-8.73-2.05-9.28-8.46c0,0-3.96-13.37,9.82-22.51
	c0,0,17.87-13.23,39.42-5.05c0,0-2.59-17.46,8.87-20.74c0,0,11.12-4.72,17.19,2.46C166.77,57.78,166.22,66.44,166.22,66.44z"/>
<path class="st2" d="M184.77,98.36l-0.27,11.46c0,0,28.17,10.87,54.02,3.82c6-1.64,9-8.05,9-8.05s4.23-12.55,1.64-19.1
	c-2.59-6.55-12.55-28.78-46.11-23.46c0,0,6.14-16.64,0.68-24.69c-5.46-8.05-15.55-21.69-38.33-21.42s-27.69,10.37-27.69,10.37
	s-5.73-9.55-14.87-9.55s-20.19,3.27-25.1,13.1c-4.91,9.82-6.14,25.51,7.5,33.97V53.75c0,0-7.64-4.23-8.18-6.28
	c-0.55-2.05-0.41-10.64,8.59-14.32c9-3.68,21.28-10.09,31.92,6.96c0,0,10.37-15.96,35.06-11.32c24.69,4.64,29.19,16.92,29.19,16.92
	s3.55,5.46-0.14,9.41C198,59.07,198,59.07,198,59.07l-9.28,8.73v10.78c0,0,20.6-8.87,34.24-4.36c13.64,4.5,20.46,9.27,22.24,12.82
	c1.77,3.55,1.77,3.55,1.77,3.55l1.09,4.5v0.68c0,0-10.91,13.37-36.83,9C185.32,100.41,184.77,98.36,184.77,98.36z"/>
<path class="st3" d="M77.14,10.6"/>
<g>
	<path d="M214.01,164.55H209v-3.74c-0.45,0.36-1.05,0.85-1.81,1.49c-0.76,0.64-1.5,1.15-2.21,1.53c-0.84,0.48-1.81,0.89-2.9,1.21
		c-1.09,0.32-2.37,0.49-3.83,0.49c-2.7,0-4.99-1.05-6.87-3.15c-1.88-2.1-2.82-4.77-2.82-8.02c0-2.66,0.49-4.82,1.46-6.46
		c0.97-1.65,2.36-2.94,4.17-3.88c1.82-0.94,4.01-1.58,6.57-1.92c2.56-0.34,5.3-0.59,8.23-0.76v-0.91c0-1.34-0.2-2.45-0.6-3.33
		c-0.4-0.88-0.98-1.57-1.73-2.08c-0.72-0.48-1.57-0.81-2.57-0.97c-1-0.17-2.05-0.25-3.14-0.25c-1.32,0-2.8,0.2-4.42,0.61
		c-1.63,0.41-3.31,1-5.04,1.78h-0.27v-6.01c0.98-0.31,2.4-0.66,4.26-1.04c1.86-0.38,3.69-0.57,5.5-0.57c2.11,0,3.95,0.2,5.51,0.61
		c1.56,0.41,2.92,1.11,4.06,2.09c1.13,0.97,1.98,2.21,2.58,3.74c0.59,1.53,0.88,3.43,0.88,5.69V164.55z M209,155.9v-9.78
		c-1.54,0.1-3.35,0.26-5.43,0.47c-2.08,0.21-3.73,0.52-4.95,0.91c-1.45,0.48-2.62,1.23-3.51,2.25c-0.89,1.02-1.34,2.42-1.34,4.2
		c0,2.01,0.52,3.53,1.56,4.55c1.04,1.02,2.62,1.53,4.75,1.53c1.77,0,3.39-0.4,4.85-1.21C206.39,158.01,207.75,157.04,209,155.9z"/>
	<path d="M246.5,147c0,5.73-1.25,10.25-3.76,13.56c-2.5,3.31-5.86,4.97-10.06,4.97c-4.24,0-7.6-1.66-10.1-4.97
		c-2.49-3.31-3.74-7.83-3.74-13.56c0-5.72,1.25-10.25,3.74-13.57c2.49-3.32,5.86-4.99,10.1-4.99c4.2,0,7.55,1.66,10.06,4.99
		C245.25,136.75,246.5,141.28,246.5,147z M241.3,147c0-4.55-0.76-7.93-2.28-10.14c-1.52-2.21-3.63-3.32-6.33-3.32
		c-2.74,0-4.86,1.11-6.37,3.32c-1.51,2.21-2.27,5.59-2.27,10.14c0,4.4,0.76,7.74,2.28,10.02c1.52,2.27,3.64,3.41,6.36,3.41
		c2.68,0,4.79-1.13,6.32-3.38C240.54,154.8,241.3,151.45,241.3,147z"/>
	<path d="M276.39,164.55h-5.04v-3.9c-1.7,1.57-3.33,2.78-4.88,3.62c-1.56,0.84-3.27,1.26-5.15,1.26c-3.15,0-5.6-1.13-7.35-3.38
		c-1.75-2.25-2.63-5.56-2.63-9.93v-22.81h5.04v20.01c0,1.78,0.07,3.31,0.21,4.58c0.14,1.27,0.45,2.35,0.91,3.26
		c0.48,0.92,1.11,1.59,1.88,2.01c0.77,0.42,1.89,0.63,3.35,0.63c1.3,0,2.73-0.4,4.28-1.2c1.55-0.8,2.99-1.81,4.33-3.05v-26.24h5.04
		V164.55z"/>
	<path d="M308.64,147.6h-22.07c0,2.16,0.28,4.04,0.83,5.65c0.55,1.6,1.31,2.92,2.28,3.95c0.93,1.01,2.03,1.76,3.31,2.27
		c1.28,0.5,2.68,0.76,4.22,0.76c2.04,0,4.09-0.48,6.15-1.43c2.07-0.95,3.53-1.89,4.41-2.82h0.27v6.45c-1.7,0.84-3.43,1.54-5.2,2.11
		c-1.77,0.57-3.63,0.85-5.58,0.85c-4.97,0-8.85-1.58-11.64-4.73c-2.79-3.16-4.18-7.64-4.18-13.45c0-5.75,1.34-10.31,4.01-13.69
		c2.67-3.38,6.19-5.06,10.55-5.06c4.04,0,7.16,1.38,9.35,4.15c2.19,2.77,3.28,6.7,3.28,11.8V147.6z M303.74,143.07
		c-0.02-3.1-0.68-5.51-2-7.2c-1.31-1.7-3.31-2.55-5.99-2.55c-2.7,0-4.85,0.93-6.45,2.8c-1.6,1.87-2.51,4.18-2.72,6.95H303.74z"/>
	<path d="M338.59,164.55h-5.04v-20.01c0-1.61-0.08-3.13-0.24-4.55c-0.16-1.42-0.46-2.52-0.89-3.32c-0.45-0.88-1.09-1.54-1.93-1.97
		c-0.84-0.43-1.93-0.65-3.27-0.65c-1.38,0-2.82,0.4-4.32,1.2c-1.5,0.8-2.94,1.81-4.32,3.05v26.24h-5.04v-35.14h5.04v3.9
		c1.57-1.53,3.2-2.73,4.88-3.59c1.68-0.86,3.41-1.29,5.18-1.29c3.24,0,5.7,1.14,7.4,3.43c1.7,2.29,2.55,5.58,2.55,9.88V164.55z"/>
</g>
<text transform="matrix(0.8524 0 0 1 51.3562 164.2943)" class="st4 st5 st6">ou</text>
<text transform="matrix(0.7973 0 0 1 18.8299 163.5619)" class="st4 st7 st8">P</text>
<polygon class="st9" points="143.21,114.27 121.25,164.24 149.05,176.46 151.43,171.05 130.08,161.67 149.66,117.1 "/>
<polygon class="st9" points="154.65,130.64 167.16,183.78 196.72,176.82 195.37,171.06 172.66,176.41 161.51,129.03 "/>
</svg>
