<svg id="Calque_1" data-name="Calque 1" xmlns="http://www.w3.org/2000/svg" viewBox="0 0 319.76 237.11"><defs><style>.cls-1{fill:#009fe3;}.cls-2{fill:#0080c9;}.cls-3{fill:#65b32e;}.cls-4{fill:#063;}.cls-5,.cls-6,.cls-7{fill:#fff;}.cls-6,.cls-7{isolation:isolate;font-family:Verdana;}.cls-6{font-size:64.43px;letter-spacing:-0.04em;}.cls-7{font-size:84.77px;letter-spacing:-0.04em;}.cls-8{fill:#936037;}</style></defs><path class="cls-1" d="M-207.13,52.83" transform="translate(-18.83 -16.92)"/><path class="cls-2" d="M299.74,254S269.13,187,162.3,172.6c0,0-64.89-8.57-117.54,15l.31,12.55s69.79-30.61,135.6-16.53S279.54,229.24,299.74,254Z" transform="translate(-18.83 -16.92)"/><path class="cls-3" d="M166.22,66.44S158.44,58,147.8,63.71c0,0-8.46,3.68-3.14,14.19l.27,9.41S127.33,76,110.55,84.17,93,96.86,93,96.86s-2.73,3.55,6.68,4.77v9.14s-8.73-2-9.28-8.46c0,0-4-13.37,9.82-22.51,0,0,17.87-13.23,39.42-5,0,0-2.59-17.46,8.87-20.74,0,0,11.12-4.72,17.19,2.46C166.77,57.78,166.22,66.44,166.22,66.44Z" transform="translate(-18.83 -16.92)"/><path class="cls-3" d="M184.77,98.36l-.27,11.46s28.17,10.87,54,3.82c6-1.64,9-8,9-8s4.23-12.55,1.64-19.1S236.61,57.71,203.05,63c0,0,6.14-16.64.68-24.69S188.18,16.65,165.4,16.92s-27.69,10.37-27.69,10.37-5.73-9.55-14.87-9.55S102.65,21,97.74,30.84s-6.14,25.51,7.5,34V53.75s-7.64-4.23-8.18-6.28-.41-10.64,8.59-14.32,21.28-10.09,31.92,7c0,0,10.37-16,35.06-11.32s29.19,16.92,29.19,16.92,3.55,5.46-.14,9.41l-3.68,4-9.28,8.73V78.58s20.6-8.87,34.24-4.36S243.42,83.49,245.2,87L247,90.59l1.09,4.5v.68s-10.91,13.37-36.83,9S184.77,98.36,184.77,98.36Z" transform="translate(-18.83 -16.92)"/><path class="cls-4" d="M77.14,10.6" transform="translate(-18.83 -16.92)"/><path class="cls-5" d="M214,164.55h-5v-3.74c-.45.36-1.05.85-1.81,1.49a13,13,0,0,1-2.21,1.53,13.52,13.52,0,0,1-2.9,1.21,13.65,13.65,0,0,1-3.83.49,8.88,8.88,0,0,1-6.87-3.15,11.57,11.57,0,0,1-2.82-8A12.61,12.61,0,0,1,190,147.9a10.11,10.11,0,0,1,4.17-3.88,20,20,0,0,1,6.57-1.92q3.84-.51,8.23-.76v-.91a8.06,8.06,0,0,0-.6-3.33,4.92,4.92,0,0,0-1.73-2.08,6.38,6.38,0,0,0-2.57-1,18.75,18.75,0,0,0-3.14-.25,18.18,18.18,0,0,0-4.42.61,30.21,30.21,0,0,0-5,1.78h-.27v-6c1-.31,2.4-.66,4.26-1a27.4,27.4,0,0,1,5.5-.57,21.88,21.88,0,0,1,5.51.61,10.07,10.07,0,0,1,4.06,2.09,9.26,9.26,0,0,1,2.58,3.74,15.93,15.93,0,0,1,.88,5.69Zm-5-8.65v-9.78c-1.54.1-3.35.26-5.43.47a25.08,25.08,0,0,0-4.95.91,7.79,7.79,0,0,0-3.51,2.25,6.17,6.17,0,0,0-1.34,4.2,6.11,6.11,0,0,0,1.56,4.55,6.54,6.54,0,0,0,4.75,1.53,9.83,9.83,0,0,0,4.85-1.21A21.49,21.49,0,0,0,209,155.9Z" transform="translate(-18.83 -16.92)"/><path class="cls-5" d="M246.5,147q0,8.59-3.76,13.56a12.71,12.71,0,0,1-20.16,0q-3.74-5-3.74-13.56t3.74-13.57a12.68,12.68,0,0,1,20.16,0Q246.51,138.41,246.5,147Zm-5.2,0q0-6.83-2.28-10.14a7.73,7.73,0,0,0-12.7,0q-2.26,3.31-2.27,10.14,0,6.6,2.28,10a7.62,7.62,0,0,0,12.68,0Q241.31,153.68,241.3,147Z" transform="translate(-18.83 -16.92)"/><path class="cls-5" d="M276.39,164.55h-5v-3.9a24.74,24.74,0,0,1-4.88,3.62,10.67,10.67,0,0,1-5.15,1.26,8.78,8.78,0,0,1-7.35-3.38q-2.62-3.37-2.63-9.93V129.41h5v20a42.67,42.67,0,0,0,.21,4.58,9.47,9.47,0,0,0,.91,3.26,4.66,4.66,0,0,0,1.88,2,7.15,7.15,0,0,0,3.35.63,9.45,9.45,0,0,0,4.28-1.2,19.54,19.54,0,0,0,4.33-3V129.41h5v35.14Z" transform="translate(-18.83 -16.92)"/><path class="cls-5" d="M308.64,147.6H286.57a17.47,17.47,0,0,0,.83,5.65,10.79,10.79,0,0,0,2.28,3.95,8.91,8.91,0,0,0,3.31,2.27,11.48,11.48,0,0,0,4.22.76,14.59,14.59,0,0,0,6.15-1.43,14.45,14.45,0,0,0,4.41-2.82H308v6.45a38,38,0,0,1-5.2,2.11,18.09,18.09,0,0,1-5.58.85q-7.45,0-11.64-4.73t-4.18-13.45q0-8.62,4-13.69A12.79,12.79,0,0,1,296,128.46q6.06,0,9.35,4.15t3.28,11.8v3.19Zm-4.9-4.53c0-3.1-.68-5.51-2-7.2s-3.31-2.55-6-2.55a8.05,8.05,0,0,0-6.45,2.8,11.74,11.74,0,0,0-2.72,6.95Z" transform="translate(-18.83 -16.92)"/><path class="cls-5" d="M338.59,164.55h-5v-20a40.75,40.75,0,0,0-.24-4.55,9.3,9.3,0,0,0-.89-3.32,4.38,4.38,0,0,0-1.93-2,7.18,7.18,0,0,0-3.27-.65,9.18,9.18,0,0,0-4.32,1.2,21.82,21.82,0,0,0-4.32,3.05v26.24h-5V129.4h5v3.9a20.31,20.31,0,0,1,4.88-3.59,11.25,11.25,0,0,1,5.18-1.29,8.64,8.64,0,0,1,7.4,3.43q2.55,3.43,2.55,9.88v22.82Z" transform="translate(-18.83 -16.92)"/><text class="cls-6" transform="translate(32.53 147.38) scale(0.85 1)">ou</text><text class="cls-7" transform="translate(0 146.65) scale(0.8 1)">P</text><polygon class="cls-8" points="124.38 97.35 102.42 147.32 130.22 159.54 132.6 154.13 111.25 144.75 130.83 100.18 124.38 97.35"/><polygon class="cls-8" points="135.82 113.72 148.33 166.86 177.89 159.9 176.54 154.14 153.83 159.49 142.68 112.11 135.82 113.72"/></svg>