<?xml version="1.0" encoding="utf-8"?>
<!-- Generator: Adobe Illustrator 26.0.0, SVG Export Plug-In . SVG Version: 6.00 Build 0)  -->
<svg version="1.1" id="Calque_1" xmlns="http://www.w3.org/2000/svg" xmlns:xlink="http://www.w3.org/1999/xlink" x="0px" y="0px"
	 viewBox="0 0 315.5 238.3" style="enable-background:new 0 0 315.5 238.3;" xml:space="preserve">
<style type="text/css">
	.st0{fill:#009FE3;}
	.st1{fill:#0080C9;}
	.st2{fill:#65B32E;}
	.st3{fill:#006633;}
	.st4{font-family:'Verdana';}
	.st5{font-size:64.4283px;}
	.st6{letter-spacing:-1.2;}
	.st7{font-size:84.772px;}
	.st8{letter-spacing:-2.5;}
	.st9{fill:#936037;}
</style>
<path class="st0" d="M-231.3,37.1"/>
<path class="st1" d="M275.6,238.3c0,0-30.6-67-137.4-81.4c0,0-64.9-8.6-117.5,15l0.3,12.6c0,0,69.8-30.6,135.6-16.5
	C222.3,182,255.4,213.5,275.6,238.3z"/>
<path class="st2" d="M142.1,50.7c0,0-7.8-8.5-18.4-2.7c0,0-8.5,3.7-3.1,14.2l0.3,9.4c0,0-17.6-11.3-34.4-3.1S68.8,81.1,68.8,81.1
	s-2.7,3.6,6.7,4.8V95c0,0-8.7-2.1-9.3-8.5c0,0-4-13.4,9.8-22.5c0,0,17.9-13.2,39.4-5.1c0,0-2.6-17.5,8.9-20.7c0,0,11.1-4.7,17.2,2.5
	C142.6,42,142.1,50.7,142.1,50.7z"/>
<path class="st2" d="M160.6,82.6l-0.3,11.5c0,0,28.2,10.9,54,3.8c6-1.6,9-8.1,9-8.1s4.2-12.6,1.6-19.1c-2.6-6.6-12.6-28.8-46.1-23.5
	c0,0,6.1-16.6,0.7-24.7S164,0.9,141.2,1.2s-27.7,10.4-27.7,10.4S107.8,2,98.7,2S78.5,5.3,73.6,15.1c-4.9,9.8-6.1,25.5,7.5,34V38
	c0,0-7.6-4.2-8.2-6.3c-0.6-2-0.4-10.6,8.6-14.3s21.3-10.1,31.9,7c0,0,10.4-16,35.1-11.3S177.7,30,177.7,30s3.6,5.5-0.1,9.4
	c-3.7,4-3.7,4-3.7,4l-9.3,8.7v10.8c0,0,20.6-8.9,34.2-4.4c13.6,4.5,20.5,9.3,22.2,12.8c1.8,3.6,1.8,3.6,1.8,3.6l1.1,4.5V80
	c0,0-10.9,13.4-36.8,9C161.2,84.7,160.6,82.6,160.6,82.6z"/>
<path class="st3" d="M53-5.2"/>
<g>
	<path d="M189.8,148.8h-5v-3.7c-0.4,0.4-1.1,0.9-1.8,1.5s-1.5,1.1-2.2,1.5c-0.8,0.5-1.8,0.9-2.9,1.2s-2.4,0.5-3.8,0.5
		c-2.7,0-5-1.1-6.9-3.1c-1.9-2.1-2.8-4.8-2.8-8c0-2.7,0.5-4.8,1.5-6.5c1-1.6,2.4-2.9,4.2-3.9c1.8-0.9,4-1.6,6.6-1.9
		c2.6-0.3,5.3-0.6,8.2-0.8v-0.9c0-1.3-0.2-2.4-0.6-3.3c-0.4-0.9-1-1.6-1.7-2.1c-0.7-0.5-1.6-0.8-2.6-1c-1-0.2-2.1-0.2-3.1-0.2
		c-1.3,0-2.8,0.2-4.4,0.6c-1.6,0.4-3.3,1-5,1.8h-0.3v-6c1-0.3,2.4-0.7,4.3-1c1.9-0.4,3.7-0.6,5.5-0.6c2.1,0,3.9,0.2,5.5,0.6
		s2.9,1.1,4.1,2.1c1.1,1,2,2.2,2.6,3.7c0.6,1.5,0.9,3.4,0.9,5.7V148.8z M184.8,140.1v-9.8c-1.5,0.1-3.4,0.3-5.4,0.5
		c-2.1,0.2-3.7,0.5-4.9,0.9c-1.4,0.5-2.6,1.2-3.5,2.2s-1.3,2.4-1.3,4.2c0,2,0.5,3.5,1.6,4.6s2.6,1.5,4.8,1.5c1.8,0,3.4-0.4,4.9-1.2
		C182.2,142.3,183.6,141.3,184.8,140.1z"/>
	<path d="M222.3,131.2c0,5.7-1.2,10.2-3.8,13.6c-2.5,3.3-5.9,5-10.1,5c-4.2,0-7.6-1.7-10.1-5c-2.5-3.3-3.7-7.8-3.7-13.6
		c0-5.7,1.2-10.2,3.7-13.6s5.9-5,10.1-5c4.2,0,7.6,1.7,10.1,5C221.1,121,222.3,125.5,222.3,131.2z M217.1,131.2
		c0-4.6-0.8-7.9-2.3-10.1s-3.6-3.3-6.3-3.3c-2.7,0-4.9,1.1-6.4,3.3s-2.3,5.6-2.3,10.1c0,4.4,0.8,7.7,2.3,10c1.5,2.3,3.6,3.4,6.4,3.4
		c2.7,0,4.8-1.1,6.3-3.4C216.4,139,217.1,135.7,217.1,131.2z"/>
	<path d="M252.2,148.8h-5v-3.9c-1.7,1.6-3.3,2.8-4.9,3.6c-1.6,0.8-3.3,1.3-5.1,1.3c-3.1,0-5.6-1.1-7.4-3.4s-2.6-5.6-2.6-9.9v-22.8h5
		v20c0,1.8,0.1,3.3,0.2,4.6c0.1,1.3,0.5,2.4,0.9,3.3c0.5,0.9,1.1,1.6,1.9,2c0.8,0.4,1.9,0.6,3.4,0.6c1.3,0,2.7-0.4,4.3-1.2
		s3-1.8,4.3-3.1v-26.2h5L252.2,148.8L252.2,148.8z"/>
	<path d="M284.5,131.8h-22.1c0,2.2,0.3,4,0.8,5.6c0.5,1.6,1.3,2.9,2.3,3.9c0.9,1,2,1.8,3.3,2.3c1.3,0.5,2.7,0.8,4.2,0.8
		c2,0,4.1-0.5,6.1-1.4c2.1-0.9,3.5-1.9,4.4-2.8h0.3v6.4c-1.7,0.8-3.4,1.5-5.2,2.1c-1.8,0.6-3.6,0.9-5.6,0.9c-5,0-8.9-1.6-11.6-4.7
		c-2.8-3.2-4.2-7.6-4.2-13.4c0-5.8,1.3-10.3,4-13.7s6.2-5.1,10.5-5.1c4,0,7.2,1.4,9.4,4.1c2.2,2.8,3.3,6.7,3.3,11.8L284.5,131.8
		L284.5,131.8z M279.6,127.3c0-3.1-0.7-5.5-2-7.2c-1.3-1.7-3.3-2.6-6-2.6c-2.7,0-4.9,0.9-6.5,2.8c-1.6,1.9-2.5,4.2-2.7,6.9H279.6z"
		/>
	<path d="M314.4,148.8h-5v-20c0-1.6-0.1-3.1-0.2-4.6s-0.5-2.5-0.9-3.3c-0.5-0.9-1.1-1.5-1.9-2c-0.8-0.4-1.9-0.6-3.3-0.6
		c-1.4,0-2.8,0.4-4.3,1.2s-2.9,1.8-4.3,3.1v26.2h-5v-35.1h5v3.9c1.6-1.5,3.2-2.7,4.9-3.6s3.4-1.3,5.2-1.3c3.2,0,5.7,1.1,7.4,3.4
		c1.7,2.3,2.5,5.6,2.5,9.9L314.4,148.8L314.4,148.8z"/>
</g>
<text transform="matrix(0.8524 0 0 1 27.188 148.5411)" class="st4 st5 st6">ou</text>
<text transform="matrix(0.7973 0 0 1 -5.3383 147.8087)" class="st4 st7 st8">P</text>
<polygon class="st9" points="119,98.5 97.1,148.5 124.9,160.7 127.3,155.3 105.9,145.9 125.5,101.3 "/>
<polygon class="st9" points="130.5,114.9 143,168 172.6,161.1 171.2,155.3 148.5,160.7 137.3,113.3 "/>
</svg>
